<svg id="Layer_1" data-name="Layer 1" xmlns="http://www.w3.org/2000/svg" viewBox="0 0 212.64 42.18"><defs><style>.cls-1{fill:none;}.cls-2{fill:#23769c;}.cls-3{fill:#58b78b;}</style></defs><title>wyvern_scratch_logo</title><path class="cls-1" d="M80,24.48v6.14l1.86-.36V24.09Z"/><path class="cls-1" d="M181.08,10.17V1.93l-1.8.38v8.1Z"/><path class="cls-2" d="M0,42.18H10.56l3-3.6L0,41.86Z"/><path class="cls-2" d="M46.5,20.4V.12H35.94V31l2.34-.68Z"/><path class="cls-2" d="M14.71,37.16l3.29-4v3l4.42-1.29,11.36-3.29H28.44L28.56.12H18v31.5H10.56V.12H0V41.48c1.09-.34,2.19-.68,3.28-1Z"/><path class="cls-2" d="M18,37.51v4.67H28.44l7.21-8.69-3.93.84C27.13,35.33,22.57,36.42,18,37.51Z"/><path class="cls-2" d="M61.2,38.25v3.93h8.28l7.07-7.11-3.23.65Z"/><path class="cls-2" d="M73.75,31.9c2.07-.47,4.14-.88,6.23-1.28V24.48c-3.51.73-7,1.38-10.56,2.06v5.08H61.2v3.79l1.15-.33C66.15,34,69.91,32.77,73.75,31.9Z"/><path class="cls-2" d="M48.36,30.81v.81H60.12l3.18-3.86c-3.34.67-6.67,1.34-10,2Z"/><path class="cls-2" d="M67,23.31l1.86-2.25h-10V0H48.36V27.37c1.78-.51,3.57-1,5.37-1.41C58.12,25,62.56,24.2,67,23.31Z"/><path class="cls-2" d="M80,20.4V0H69.42V22.8l.84-.18Q75.13,21.54,80,20.4Z"/><path class="cls-3" d="M111.36,23.66l2-2.36V17c-2.19.44-4.38.89-6.56,1.37l-3.82.87v6.43Z"/><path class="cls-3" d="M82.26,24l-.42.09v6.17c2.82-.54,5.64-1.07,8.44-1.69l2.06-.47V21.69C89,22.47,85.62,23.26,82.26,24Z"/><path class="cls-3" d="M92.34.06H81.84V20l10.5-2.48Z"/><path class="cls-3" d="M113.4,13.28V.06H103V14.87l.76-.16C107,14.17,110.19,13.73,113.4,13.28Z"/><path class="cls-3" d="M99.43,37.46l7.39-8.55-3.81.86v1.91H93.62c-2.13.4-4.27.8-6.4,1.23L81.84,34v7.25c1.51-.43,3-.84,4.55-1.18C90.72,39.08,95.09,38.33,99.43,37.46Z"/><path class="cls-3" d="M95.46,42.06l.1-.11-.55.11Z"/><path class="cls-3" d="M142.56,26.7V21.06c-5.23,1.08-10.49,2.06-15.7,3.22-3.89.86-7.77,1.77-11.66,2.68v6.95l10.44-2.47V26.7Z"/><path class="cls-3" d="M119.13,21.74c1.55-.41,3.1-.81,4.67-1.08,5.63-1,11.32-1.58,16.93-2.58l1.82-.35V16.14H125.64V14.46l-1.15.25c-2.83.6-5.66,1.16-8.5,1.73l4.42,3.66Z"/><path class="cls-3" d="M125.64,11.16v-.48h2.21c2.6-.58,5.2-1.18,7.8-1.73,3.5-.74,7-1.52,10.51-2.23V.24h-31V13c1.84-.27,3.68-.55,5.52-.88C122.36,11.84,124,11.51,125.64,11.16Z"/><path class="cls-3" d="M115.2,38v4.08h31V31.74h-3.34l-3.32.71C131.38,34.25,123.31,36.24,115.2,38Z"/><path class="cls-3" d="M161.49,27.87l7.29,8.91v5.28H179.1V33.84L174,27.6l4.76-3.84c-2.2.57-4.4,1.14-6.61,1.67Q166.83,26.7,161.49,27.87Z"/><path class="cls-3" d="M158.52,17.49Q153.3,18.73,148,19.88V27.1c1.78-.26,3.56-.54,5.34-.85s3.43-.66,5.14-1v-1l.68.83L167,23.34h-8.51Z"/><path class="cls-3" d="M148,30.67l0,11.39h10.5V28.52l-1.36.3C154.12,29.47,151.08,30.07,148,30.67Z"/><path class="cls-3" d="M172.36,14c-1.2.29-2.39.58-3.58.89V23c3.5-.75,7-1.52,10.5-2.23v-8.3Q175.82,13.2,172.36,14Z"/><path class="cls-3" d="M167.8,3.28c3.82-.54,7.66-1,11.48-1.53V.06h-31.2V6.34c1.07-.21,2.15-.42,3.22-.61C156.77,4.77,162.29,4.06,167.8,3.28Z"/><path class="cls-3" d="M155.67,14.89l2.85-.61V10.56h10.26v1.59c.84-.16,1.69-.33,2.53-.48,2.65-.47,5.3-.87,8-1.25V2.32l-1.35.29c-3.82.78-7.65,1.49-11.46,2.31-4.72,1-9.43,2-14.13,3.16-1.43.34-2.85.7-4.28,1.07v7.43C150.59,16,153.13,15.43,155.67,14.89Z"/><path class="cls-3" d="M181.08,23.16v19h10.5V20.67q-3.29.74-6.58,1.51C183.69,22.5,182.38,22.83,181.08,23.16Z"/><path class="cls-3" d="M204.49,7.13c-2.18.47-4.35,1-6.54,1.41-3.82.78-7.65,1.49-11.46,2.31L181.08,12v8.35c1-.18,1.91-.37,2.87-.54,2.53-.45,5.08-.83,7.63-1.2V10.56h10.56v6.61c3.33-.46,6.67-.88,10-1.33l.5-.07V0H199L191.9,8.67l7.6-1A50,50,0,0,1,204.49,7.13Z"/><path class="cls-3" d="M181.08,1.93v8.23l6.74-.94,3.76-.51V0h-10.5V1.51c1.12-.15,2.24-.28,3.39-.32Z"/><path class="cls-3" d="M210.59,16.71c-2.82.58-5.64,1.13-8.45,1.7V42.12h10.5V16.27Z"/></svg>